<?xml version="1.0" standalone="no"?>
<!DOCTYPE svg PUBLIC "-//W3C//DTD SVG 20010904//EN"
 "http://www.w3.org/TR/2001/REC-SVG-20010904/DTD/svg10.dtd">
<svg version="1.0" xmlns="http://www.w3.org/2000/svg"
 width="200.000000pt" height="200.000000pt" viewBox="0 0 200.000000 200.000000"
 preserveAspectRatio="xMidYMid meet">

<g transform="translate(0.000000,200.000000) scale(0.100000,-0.100000)"
fill="#000000" stroke="none">
<path d="M526 1645 c-57 -30 -55 -17 -56 -457 0 -395 1 -409 20 -428 11 -11
31 -20 45 -20 24 0 25 -3 25 -55 l0 -55 -45 0 c-38 0 -45 -3 -45 -20 0 -20 7
-20 530 -20 523 0 530 0 530 20 0 17 -7 20 -45 20 l-45 0 0 55 c0 52 1 55 25
55 14 0 34 9 45 20 19 19 20 33 20 428 0 401 0 409 -21 431 -11 12 -32 26 -46
32 -14 5 -215 9 -466 9 -375 0 -446 -2 -471 -15z m962 -517 l-3 -343 -22 -3
c-22 -3 -23 -3 -25 165 l-3 168 -85 0 -85 0 -3 -59 c-2 -44 1 -63 14 -77 16
-18 16 -20 -2 -40 -18 -20 -18 -21 1 -35 19 -14 19 -16 3 -25 -16 -9 -18 -26
-18 -129 l0 -120 -25 0 -25 0 0 124 c0 68 -3 131 -6 140 -5 13 -23 16 -90 16
l-84 0 0 -140 0 -140 -30 0 -30 0 0 230 0 230 -84 0 c-67 0 -85 -3 -90 -16 -3
-9 -6 -112 -6 -230 l0 -214 -25 0 c-24 0 -24 0 -27 113 l-3 112 -85 0 -85 0
-3 -38 c-3 -33 -6 -38 -25 -35 l-22 3 -3 343 -2 342 490 0 490 0 -2 -342z
m-558 -288 l0 -210 -45 0 -45 0 0 210 0 210 45 0 45 0 0 -210z m230 -90 l0
-120 -45 0 -45 0 0 120 0 120 45 0 45 0 0 -120z m-470 -26 l0 -95 -42 3 -43 3
-3 93 -3 92 46 0 45 0 0 -96z"/>
<path d="M560 1375 c0 -18 34 -27 91 -23 32 2 45 8 47 21 3 15 -5 17 -67 17
-56 0 -71 -3 -71 -15z"/>
<path d="M740 1376 c0 -15 24 -28 34 -19 13 14 5 33 -14 33 -11 0 -20 -6 -20
-14z"/>
<path d="M822 1354 c-19 -13 -23 -24 -21 -55 3 -36 -2 -44 -55 -98 -50 -51
-63 -59 -93 -58 -27 1 -41 -6 -59 -27 -29 -33 -30 -55 -3 -90 15 -19 30 -26
55 -26 46 0 74 29 74 78 0 33 7 45 58 93 49 48 62 56 97 57 36 1 46 -6 107
-65 61 -61 66 -68 61 -100 -12 -73 81 -114 127 -56 14 18 20 37 18 55 -4 23 7
38 64 95 52 52 75 68 99 69 97 5 96 144 -1 144 -54 0 -88 -46 -71 -94 8 -20 1
-31 -57 -89 -92 -91 -111 -90 -209 6 -61 60 -71 74 -67 96 8 39 -28 81 -70 81
-17 0 -42 -7 -54 -16z m73 -54 c0 -18 -6 -26 -23 -28 -24 -4 -38 18 -28 44 3
9 15 14 28 12 17 -2 23 -10 23 -28z m-220 -230 c0 -18 -6 -26 -23 -28 -24 -4
-38 18 -28 44 3 9 15 14 28 12 17 -2 23 -10 23 -28z m469 -6 c7 -19 -10 -44
-29 -44 -19 0 -36 25 -29 44 3 9 16 16 29 16 13 0 26 -7 29 -16z"/>
<path d="M560 1275 c0 -18 34 -27 91 -23 32 2 45 8 47 21 3 15 -5 17 -67 17
-56 0 -71 -3 -71 -15z"/>
<path d="M100 490 c0 -5 20 -10 45 -10 l46 0 -3 -57 c-3 -53 -5 -58 -27 -61
-15 -2 -28 3 -33 12 -13 24 -30 19 -26 -6 2 -19 10 -24 48 -26 58 -4 70 12 70
95 l0 63 -60 0 c-33 0 -60 -4 -60 -10z"/>
<path d="M274 487 c-3 -8 -4 -43 -2 -78 l3 -64 65 0 65 0 0 75 0 75 -63 3
c-46 2 -64 -1 -68 -11z m106 -67 l0 -60 -40 0 -40 0 0 60 0 60 40 0 40 0 0
-60z"/>
<path d="M460 490 c0 -5 5 -10 10 -10 7 0 7 -7 0 -20 -6 -12 -10 -42 -8 -68
l3 -47 65 0 c64 0 65 0 68 29 2 16 -1 39 -7 50 -5 12 -11 32 -13 46 -3 23 -8
25 -60 28 -36 2 -58 -1 -58 -8z m90 -34 c0 -19 -6 -25 -30 -28 -27 -4 -30 -2
-30 24 0 24 4 28 30 28 25 0 30 -4 30 -24z m20 -71 c0 -22 -4 -25 -40 -25 -36
0 -40 3 -40 25 0 23 4 25 40 25 36 0 40 -2 40 -25z"/>
<path d="M690 490 c0 -5 11 -10 25 -10 24 0 25 -2 25 -71 0 -52 3 -70 13 -67
7 3 13 29 15 71 3 59 5 67 22 67 11 0 20 5 20 10 0 6 -27 10 -60 10 -33 0 -60
-4 -60 -10z"/>
<path d="M840 490 c0 -5 5 -10 12 -10 9 0 9 -3 0 -12 -7 -7 -12 -38 -12 -70 0
-45 3 -58 15 -58 12 0 15 14 15 70 l0 70 40 0 c39 0 40 -1 40 -35 0 -33 -2
-35 -32 -35 l-32 0 34 -35 c19 -19 41 -35 49 -35 11 0 9 6 -8 24 l-22 23 21 6
c18 5 21 12 18 54 l-3 48 -67 3 c-43 2 -68 -1 -68 -8z"/>
<path d="M1037 493 c-4 -3 -7 -40 -7 -80 0 -55 3 -74 13 -71 6 3 13 14 15 26
3 18 10 22 43 22 35 0 39 -2 39 -26 0 -16 5 -24 13 -22 8 3 13 31 15 81 l3 77
-64 0 c-35 0 -67 -3 -70 -7z m103 -47 c0 -32 -2 -34 -40 -38 l-40 -4 0 38 c0
38 0 38 40 38 39 0 40 -1 40 -34z"/>
<path d="M1227 494 c-10 -10 -9 -126 2 -142 5 -9 26 -12 67 -10 52 3 59 5 62
26 2 15 -2 22 -12 22 -9 0 -16 -7 -16 -15 0 -11 -11 -15 -40 -15 l-40 0 0 60
0 60 39 0 c25 0 41 -5 45 -15 9 -23 28 -18 24 8 -3 20 -9 22 -63 25 -34 2 -64
0 -68 -4z"/>
<path d="M1410 419 c0 -60 3 -80 13 -77 6 3 13 19 15 36 3 30 6 32 43 32 38 0
39 -1 39 -36 0 -24 4 -34 13 -32 15 6 21 32 13 64 -5 19 -13 24 -39 24 l-32 0
40 35 c22 19 34 34 25 35 -8 0 -34 -19 -57 -42 l-43 -42 0 42 c0 31 -4 42 -15
42 -12 0 -15 -16 -15 -81z"/>
<path d="M1601 420 l-2 -80 56 0 c64 0 75 17 13 22 -36 2 -44 7 -46 26 -3 20
1 22 42 22 28 0 46 5 46 11 0 8 -15 10 -45 7 -44 -5 -45 -5 -45 23 0 28 2 29
45 29 25 0 45 5 45 10 0 6 -24 10 -53 10 l-53 0 -3 -80z"/>
<path d="M1760 490 c0 -5 5 -10 12 -10 9 0 9 -3 0 -12 -17 -17 -16 -131 1
-126 7 3 13 29 15 71 l3 67 39 0 c39 0 40 -1 40 -35 0 -34 -1 -35 -37 -35
l-37 0 34 -35 c44 -46 85 -49 43 -3 -14 16 -14 18 -1 18 18 0 28 20 28 55 0
49 -8 55 -76 55 -36 0 -64 -4 -64 -10z"/>
</g>
</svg>
